<svg width="512px" height="476px" viewBox="0 0 512 476" version="1.1" xmlns="http://www.w3.org/2000/svg" xmlns:xlink="http://www.w3.org/1999/xlink">
    <g stroke="none" stroke-width="1" fill="none" fill-rule="evenodd">
        <g fill-rule="nonzero">
            <g transform="translate(34.000000, 371.000000)" fill="#81AF31">
                <path d="M348.212,40.588 C347.49,42.454 345.866,43.829 343.905,44.227 C341.939,44.629 339.913,44.003 338.52,42.567 C334.167,38.083 331.176,31.816 329.256,26.587 C321.749,35.09 318.55,44.656 317.185,51.443 C347.748,53.689 375.828,57.028 399.905,61.352 C402.653,61.845 405.325,62.35 407.936,62.863 C412.155,48.263 425.565,39.62 437.256,34.721 C410.519,29.399 387.434,36.008 387.152,36.09 C384.26,36.944 381.183,35.465 380.048,32.671 C377.676,26.839 378.085,15.374 378.769,7.283 C358.511,14.55 348.325,40.299 348.212,40.588 Z"></path>
                <path d="M44.094,61.352 C59.548,58.576 76.658,56.208 95.008,54.273 C82.43,17.091 59.046,4.636 44.701,0.487 C54.543,22.216 43.974,44.879 43.435,46.004 C42.624,47.702 41.045,48.908 39.194,49.246 C37.343,49.581 35.442,49.014 34.081,47.712 C23.011,37.12 10.721,34.367 0.79,34.424 C14.098,43.4 21.265,57.643 24.355,65.337 C30.482,63.946 37.06,62.616 44.094,61.352 Z"></path>
            </g>
            <path d="M141.001,424.086 C176.16,420.829 215.349,419.101 256,419.101 C284.838,419.101 312.938,419.971 339.391,421.639 C341.235,411.339 346.66,394.635 362.581,382.158 C364.177,380.905 366.313,380.567 368.224,381.267 C370.132,381.967 371.542,383.605 371.953,385.595 C372.432,387.895 373.809,392.907 375.992,397.638 C380.448,389.776 388.122,378.923 399.35,371.843 L399.35,317.752 L377.411,309.046 C375.628,308.339 374.304,306.806 373.864,304.94 C373.422,303.074 373.919,301.111 375.196,299.681 L399.351,272.604 L399.351,112.188 C399.351,56.927 335.043,11.97 255.998,11.97 C229.113,11.97 203.937,17.175 182.413,26.214 C183.055,31.957 185.211,43.038 192.423,50.239 L239.564,29.032 C242.523,27.704 245.998,29.021 247.327,31.978 C248.657,34.936 247.339,38.41 244.382,39.741 L207.812,56.192 C223.542,58.784 246.738,58.164 259.423,56.752 C263.334,56.322 268.225,57.555 284.164,76.169 L312.287,78.311 C315.52,78.556 317.941,81.378 317.694,84.611 C317.46,87.692 314.886,90.036 311.846,90.036 C311.697,90.036 311.547,90.031 311.394,90.018 L294.47,88.729 C300.038,95.767 304.123,101.292 304.359,101.612 C306.285,104.221 305.729,107.898 303.12,109.822 C302.071,110.596 300.849,110.969 299.638,110.969 C297.838,110.969 296.06,110.144 294.909,108.584 C281.949,91.021 265.092,71.134 259.873,68.508 C255.734,68.917 237.126,70.565 219.032,69.316 L194.325,99.554 C193.165,100.974 191.476,101.71 189.775,101.71 C188.469,101.71 187.154,101.277 186.063,100.385 C183.552,98.332 183.18,94.635 185.232,92.123 L188.86,87.683 L174.289,89.965 C173.981,90.013 173.675,90.037 173.374,90.037 C170.531,90.037 168.034,87.969 167.58,85.073 C167.077,81.87 169.269,78.866 172.472,78.365 L199.995,74.056 L205.211,67.672 C196.951,66.172 189.762,63.71 185.422,59.791 C176.225,51.487 172.669,39.521 171.284,31.396 C135.75,49.653 112.642,79.069 112.642,112.192 L112.642,147.979 L132.261,156.101 C134.229,156.916 135.602,158.734 135.847,160.848 C136.092,162.964 135.172,165.047 133.442,166.292 L112.642,181.249 L112.642,377.626 C123.22,387.212 133.937,401.842 141.001,424.086 Z" fill="#808080"></path>
            <path d="M256.001,430.844 C189.526,430.844 127.081,435.485 80.172,443.911 C42.296,450.713 23.92,458.403 16.3,464.03 L495.702,464.03 C488.084,458.403 469.707,450.713 431.83,443.911 C384.92,435.484 322.475,430.844 256.001,430.844 Z" fill="#754C24"></path>
            <path d="M488.768,447.008 C479.648,443.135 467.834,439.554 453.52,436.31 C460.058,417.136 492.154,411.626 492.498,411.57 C495.085,411.152 497.082,409.069 497.391,406.467 C497.701,403.865 496.247,401.372 493.831,400.36 C465.013,388.285 436.449,391.842 424.108,394.333 C423.73,388.403 424.291,379.113 425.308,371.526 C425.546,369.738 424.95,367.938 423.69,366.646 C422.431,365.354 420.655,364.713 418.852,364.909 C416.142,365.204 413.559,365.742 411.094,366.472 L411.094,313.767 C411.094,311.361 409.625,309.197 407.388,308.31 L389.551,301.232 L409.605,278.752 C410.564,277.676 411.094,276.285 411.094,274.843 L411.094,112.188 C411.094,81.897 394.695,53.556 364.919,32.387 C335.749,11.649 297.067,0.228 255.998,0.228 C214.931,0.228 176.251,11.649 147.081,32.387 C117.303,53.557 100.904,81.898 100.904,112.188 L100.904,151.898 C100.904,154.273 102.335,156.414 104.529,157.323 L118.029,162.912 L103.347,173.47 C101.812,174.573 100.903,176.347 100.903,178.237 L100.903,368.76 C99.723,368.03 98.564,367.35 97.435,366.731 C81.134,357.781 67.191,357.668 66.535,357.668 L66.53,357.668 C64.214,357.67 62.116,359.034 61.173,361.148 C60.229,363.263 60.618,365.735 62.164,367.458 C73.45,380.046 71.793,395.567 69.413,404.559 C42.194,384.876 12.488,397.592 11.137,398.191 C8.718,399.258 7.311,401.809 7.699,404.423 C8.086,407.038 10.173,409.071 12.796,409.39 C32.358,411.775 42.673,429.778 46.777,439.183 C37.605,441.632 29.734,444.247 23.23,447.008 C7.6,453.648 0,461.137 0,469.901 C0,471.458 0.618,472.952 1.72,474.053 C2.82,475.154 4.314,475.772 5.871,475.772 L506.129,475.772 C507.686,475.772 509.18,475.153 510.28,474.053 C511.383,472.952 512,471.458 512,469.901 C512,461.137 504.401,453.648 488.768,447.008 Z M412.771,378.283 C412.086,386.374 411.678,397.838 414.05,403.671 C415.186,406.466 418.262,407.945 421.154,407.09 C421.436,407.008 444.521,400.399 471.258,405.721 C459.567,410.62 446.157,419.264 441.938,433.863 C439.328,433.349 436.655,432.845 433.907,432.352 C409.829,428.027 381.75,424.688 351.187,422.443 C352.553,415.657 355.752,406.089 363.258,397.587 C365.178,402.817 368.169,409.084 372.522,413.567 C373.915,415.002 375.941,415.629 377.907,415.227 C379.868,414.829 381.492,413.454 382.214,411.588 C382.325,411.299 392.511,385.55 412.771,378.283 Z M112.647,181.246 L133.447,166.289 C135.177,165.044 136.097,162.962 135.852,160.845 C135.607,158.729 134.234,156.911 132.266,156.098 L112.647,147.976 L112.647,112.189 C112.647,79.066 135.756,49.65 171.289,31.393 C172.673,39.519 176.23,51.484 185.427,59.788 C189.766,63.708 196.956,66.17 205.216,67.669 L200,74.053 L172.477,78.362 C169.273,78.863 167.083,81.867 167.585,85.07 C168.038,87.966 170.536,90.034 173.379,90.034 C173.681,90.034 173.987,90.011 174.294,89.962 L188.865,87.68 L185.237,92.12 C183.186,94.631 183.558,98.329 186.068,100.382 C187.159,101.273 188.474,101.707 189.78,101.707 C191.481,101.707 193.17,100.971 194.33,99.551 L219.037,69.313 C237.131,70.562 255.739,68.915 259.878,68.505 C265.095,71.132 281.954,91.018 294.914,108.581 C296.065,110.142 297.843,110.967 299.643,110.966 C300.854,110.966 302.075,110.594 303.125,109.819 C305.734,107.893 306.288,104.218 304.364,101.609 C304.128,101.29 300.043,95.764 294.475,88.726 L311.399,90.015 C311.552,90.027 311.702,90.033 311.851,90.033 C314.892,90.033 317.465,87.689 317.699,84.608 C317.946,81.375 315.523,78.554 312.292,78.308 L284.168,76.167 C268.229,57.553 263.338,56.32 259.427,56.75 C246.742,58.161 223.546,58.781 207.816,56.19 L244.387,39.739 C247.344,38.409 248.662,34.933 247.332,31.976 C246.003,29.019 242.528,27.702 239.569,29.03 L192.428,50.237 C185.215,43.037 183.059,31.955 182.418,26.212 C203.942,17.174 229.117,11.968 256.003,11.968 C335.048,11.968 399.356,56.926 399.356,112.186 L399.356,272.601 L375.201,299.678 C373.925,301.108 373.428,303.073 373.869,304.937 C374.309,306.803 375.634,308.336 377.416,309.043 L399.355,317.749 L399.355,371.84 C388.126,378.918 380.452,389.773 375.997,397.635 C373.814,392.904 372.437,387.892 371.958,385.592 C371.547,383.602 370.137,381.964 368.229,381.264 C366.317,380.563 364.183,380.901 362.586,382.155 C346.665,394.632 341.24,411.336 339.396,421.636 C312.944,419.969 284.843,419.098 256.005,419.098 C215.355,419.098 176.166,420.825 141.006,424.083 C133.941,401.839 123.223,387.21 112.652,377.621 L112.652,181.246 L112.647,181.246 Z M34.79,405.425 C44.721,405.367 57.011,408.121 68.081,418.713 C69.442,420.014 71.343,420.581 73.194,420.247 C75.046,419.909 76.624,418.704 77.435,417.005 C77.974,415.88 88.543,393.217 78.701,371.488 C93.045,375.635 116.429,388.092 129.008,425.274 C110.658,427.209 93.548,429.578 78.094,432.353 C71.06,433.616 64.482,434.947 58.356,436.338 C55.264,428.645 48.098,414.401 34.79,405.425 Z M16.3,464.03 C23.918,458.403 42.295,450.713 80.172,443.911 C127.082,435.485 189.527,430.844 256.001,430.844 C322.475,430.844 384.921,435.485 431.83,443.911 C469.706,450.713 488.082,458.403 495.702,464.03 L16.3,464.03 Z" fill="#000000"></path>
        </g>
    </g>
</svg>
